# xmcd
#
# Track frame offsets: 
#        150
#        18895
#        48995
#        56104
#
# Disc length: 998 seconds
#
# Revision: 0
# Processed by: cddbd v1.5.2PL0 Copyright (c) Steve Scherf et al.
# Submitted via: ExactAudioCopy v1.3
#
DISCID=2b03e404
DTITLE=スキマスイッチ - 全力少年 produced by 奥田民生
DYEAR=2016
DGENRE=Anime
TTITLE0=全力少年 produced by 奥田民生
TTITLE1=ハナツ (premium ver.)
TTITLE2=全力少年 produced by 奥田民生 (anime ver.)
TTITLE3=全力少年 produced by 奥田民生 (KARAOKE)
EXTD=
EXTT0=
EXTT1=
EXTT2=
EXTT3=
PLAYORDER=
